<svg width="24" height="24" viewBox="0 0 24 24" fill="none" xmlns="http://www.w3.org/2000/svg">
<path d="M10.5002 17.4998C12.0702 17.4998 13.5202 16.9698 14.6802 16.0998L18.7902 20.2098L20.2002 18.7998L16.0902 14.6898C16.9702 13.5198 17.4902 12.0798 17.4902 10.5098C17.4902 6.64977 14.3502 3.50977 10.4902 3.50977C6.63023 3.50977 3.49023 6.64977 3.49023 10.5098C3.49023 14.3698 6.64023 17.4998 10.5002 17.4998ZM10.5002 5.49977C13.2602 5.49977 15.5002 7.73977 15.5002 10.4998C15.5002 13.2598 13.2602 15.4998 10.5002 15.4998C7.74023 15.4998 5.50023 13.2598 5.50023 10.4998C5.50023 7.73977 7.74023 5.49977 10.5002 5.49977Z" fill="black" fill-opacity="0.9" style="fill:black;fill:black;fill-opacity:0.9;"/>
</svg>
