<svg width="20" height="20" viewBox="0 0 20 20" fill="none" xmlns="http://www.w3.org/2000/svg">
<path d="M9.08364 2.09743C9.43295 1.2979 10.567 1.2979 10.9164 2.09743L12.8837 6.60033C12.9845 6.83119 13.1688 7.01547 13.3997 7.11634L17.9026 9.08364C18.7021 9.43295 18.7021 10.567 17.9026 10.9164L13.3997 12.8837C13.1688 12.9845 12.9845 13.1688 12.8837 13.3997L10.9164 17.9026C10.5671 18.7021 9.43295 18.7021 9.08364 17.9026L7.11634 13.3997C7.01547 13.1688 6.83119 12.9845 6.60033 12.8837L2.09743 10.9164C1.2979 10.5671 1.2979 9.43295 2.09743 9.08364L6.60033 7.11634C6.83119 7.01547 7.01547 6.83119 7.11634 6.60033L9.08364 2.09743Z" fill="#8716D9"/>
</svg>
