<svg width="20" height="20" viewBox="0 0 20 20" fill="none" xmlns="http://www.w3.org/2000/svg">
<path fill-rule="evenodd" clip-rule="evenodd" d="M13 2C13 1.44772 12.5523 1 12 1C11.4477 1 11 1.44772 11 2V3H10C9.44772 3 9 3.44772 9 4C9 4.55228 9.44772 5 10 5H11V6C11 6.55228 11.4477 7 12 7C12.5523 7 13 6.55228 13 6V5L14 5C14.5523 5 15 4.55228 15 4C15 3.44772 14.5523 3 14 3L13 3V2ZM2.70711 14.7071L6.70711 10.7071L5.29289 9.29289L1.29289 13.2929C0.902369 13.6834 0.902369 14.3166 1.29289 14.7071C1.68342 15.0976 2.31658 15.0976 2.70711 14.7071ZM9.2071 6.79289C9.59763 7.18342 9.59763 7.81658 9.2071 8.20711L7.7071 9.70711L6.29289 8.29289L7.79289 6.79289C8.18341 6.40237 8.81658 6.40237 9.2071 6.79289ZM6 5C6.55228 5 7 4.55228 7 4C7 3.44772 6.55228 3 6 3C5.44772 3 5 3.44772 5 4C5 4.55228 5.44772 5 6 5ZM4 7C4 7.55228 3.55228 8 3 8C2.44772 8 2 7.55228 2 7C2 6.44772 2.44772 6 3 6C3.55228 6 4 6.44772 4 7ZM12 12C12.5523 12 13 11.5523 13 11C13 10.4477 12.5523 10 12 10C11.4477 10 11 10.4477 11 11C11 11.5523 11.4477 12 12 12Z" fill="#8716D9" style="fill:#8716D9;fill:color(display-p3 0.5313 0.0850 0.8500);fill-opacity:1;"/>
</svg>
