<svg width="180" height="45" viewBox="0 0 180 45" fill="none" xmlns="http://www.w3.org/2000/svg">
<path d="M37.3887 1.36325e-08H7.50112C6.51604 -5.94072e-05 5.5406 0.194396 4.6305 0.572263C3.72039 0.95013 2.89345 1.50401 2.1969 2.20226C1.50034 2.90052 0.947814 3.72948 0.570868 4.64181C0.193923 5.55414 -5.92624e-05 6.53197 1.35808e-08 7.51945V37.4792C-1.88194e-08 39.4736 0.790251 41.3863 2.19695 42.7967C3.60364 44.2071 5.51157 44.9996 7.50112 45H37.3887C39.3784 44.9998 41.2866 44.2073 42.6935 42.7969C44.1004 41.3866 44.8909 39.4738 44.8912 37.4792V7.51945C44.8909 5.52501 44.1004 3.61234 42.6934 2.20218C41.2864 0.792024 39.3783 -0.000119989 37.3887 1.36325e-08ZM36.7289 34.4456C36.7289 35.0751 36.4794 35.6789 36.0354 36.1241C35.5914 36.5693 34.9892 36.8194 34.3612 36.8195H10.5309C10.22 36.8195 9.9121 36.758 9.62487 36.6387C9.33763 36.5194 9.07665 36.3445 8.85683 36.124C8.63702 35.9036 8.46266 35.6419 8.34373 35.3539C8.2248 35.066 8.16361 34.7573 8.16367 34.4456V10.5571C8.16361 10.2454 8.2248 9.9368 8.34374 9.64884C8.46268 9.36088 8.63704 9.09923 8.85686 8.87883C9.07668 8.65843 9.33767 8.48359 9.6249 8.36431C9.91214 8.24502 10.22 8.18363 10.5309 8.18363H34.3612C34.9891 8.18363 35.5914 8.43369 36.0354 8.8788C36.4794 9.32391 36.7289 9.92761 36.7289 10.5571V34.4456ZM17.6827 28.6065C17.5037 28.6063 17.3265 28.5707 17.1612 28.5017C16.996 28.4327 16.8459 28.3316 16.7198 28.2043C16.5936 28.077 16.4937 27.926 16.4259 27.7599C16.3581 27.5939 16.3237 27.416 16.3246 27.2365V17.7028C16.3237 17.5234 16.3582 17.3456 16.426 17.1795C16.4939 17.0135 16.5937 16.8625 16.7199 16.7352C16.8461 16.6079 16.9961 16.5068 17.1613 16.4378C17.3265 16.3688 17.5037 16.3331 17.6827 16.3329H27.2094C27.3885 16.333 27.5658 16.3687 27.7311 16.4376C27.8965 16.5066 28.0466 16.6077 28.173 16.7349C28.2993 16.8622 28.3993 17.0132 28.4673 17.1793C28.5353 17.3454 28.57 17.5233 28.5693 17.7028V27.2365C28.5698 27.4158 28.5351 27.5934 28.4671 27.7592C28.3991 27.925 28.2992 28.0757 28.1731 28.2028C28.047 28.3298 27.8971 28.4307 27.732 28.4997C27.567 28.5687 27.39 28.6043 27.2112 28.6047L17.6827 28.6065ZM56.7919 27.9559H61.6933C61.9384 30.7402 63.8173 32.9101 67.6157 32.9101C71.0056 32.9101 73.089 31.2315 73.089 28.6929C73.089 26.3181 71.4552 25.2544 68.5143 24.5577L64.7159 23.7388C60.5907 22.838 57.4865 20.1786 57.4865 15.8352C57.4865 11.0448 61.734 7.7692 67.2479 7.7692C73.089 7.7692 76.8463 10.8399 77.1731 15.385H72.4341C71.8636 13.2563 70.107 11.9895 67.2483 11.9895C64.2244 11.9895 62.1429 13.6273 62.1429 15.7157C62.1429 17.8042 63.9401 19.0728 67.0443 19.7691L70.8021 20.588C74.9273 21.4888 77.7454 23.9862 77.7454 28.3672C77.7454 33.9357 73.5791 37.2521 67.6161 37.2521C60.917 37.2503 57.2003 33.6064 56.7919 27.9559ZM95.2796 45V36.8485L95.6 33.2743H95.2796C94.158 35.8441 91.7944 37.2498 88.59 37.2498C83.4227 37.2498 79.5769 33.0336 79.5769 26.5683C79.5769 20.103 83.4227 15.8868 88.59 15.8868C91.7547 15.8868 93.9978 17.3726 95.2796 19.7017H95.6V16.2876H99.8461V45H95.2796ZM95.4398 26.5687C95.4398 22.4326 92.9164 20.0234 89.8316 20.0234C86.7467 20.0234 84.2238 22.4326 84.2238 26.5687C84.2238 30.7049 86.7458 33.1141 89.8316 33.1141C92.9173 33.1141 95.4398 30.7049 95.4398 26.5687ZM103.238 28.6952V16.2876H107.805V28.2952C107.805 31.5482 109.367 33.1141 111.971 33.1141C115.175 33.1141 117.258 30.8252 117.258 27.2515V16.2876H121.825V36.8485H117.579V32.592H117.258C116.257 35.3229 114.054 37.2521 110.649 37.2521C105.762 37.2503 103.238 34.1181 103.238 28.697V28.6952ZM124.61 31.1044C124.61 27.2497 127.294 25.0011 132.061 24.7196L137.709 24.3577V22.7516C137.709 20.8242 136.307 19.6596 133.823 19.6596C131.54 19.6596 130.178 20.8242 129.817 22.4706H125.251C125.731 18.2942 129.177 15.885 133.823 15.885C139.071 15.885 142.275 18.1336 142.275 22.4706V36.8485H138.029V33.034H137.709C136.747 35.5636 134.744 37.2503 130.899 37.2503C127.213 37.2503 124.61 34.7605 124.61 31.1062V31.1044ZM137.709 28.5748V27.489L133.102 27.8102C130.62 27.9708 129.497 28.8961 129.497 30.742C129.497 32.3079 130.779 33.4322 132.582 33.4322C135.826 33.4349 137.709 31.3473 137.709 28.5766V28.5748ZM145.676 36.8485V16.2876H149.922V20.2238H150.243C150.844 17.5332 152.887 16.2876 155.929 16.2876H158.012V20.4233H155.409C152.444 20.4233 150.241 22.3512 150.241 26.005V36.8485H145.676ZM178.913 27.4121H163.331C163.571 31.1867 166.215 33.315 169.139 33.315C171.622 33.315 173.185 32.311 174.067 30.6244H178.592C177.35 34.8008 173.705 37.2503 169.098 37.2503C163.05 37.2503 158.803 32.7128 158.803 26.5687C158.803 20.4247 163.169 15.8872 169.139 15.8872C175.147 15.8872 179.073 20.0234 179.073 25.1621C179.074 26.167 178.994 26.6891 178.913 27.4121ZM174.547 24.2396C174.387 21.3893 172.023 19.461 169.139 19.461C166.416 19.461 164.132 21.1879 163.571 24.2396H174.547Z" fill="#121212"/>
</svg>
