<svg width="15" height="16" viewBox="0 0 15 16" fill="none" xmlns="http://www.w3.org/2000/svg">
<path d="M7.66616 0.870972C4.84181 0.870972 2.26673 2.50421 1.05572 5.05576C0.972748 5.23186 0.962811 5.43364 1.02808 5.61704C1.09335 5.80044 1.22852 5.95057 1.40409 6.03466C1.58019 6.11763 1.78197 6.12757 1.96537 6.0623C2.14877 5.99703 2.2989 5.86186 2.38299 5.68629C3.35138 3.64593 5.40766 2.34652 7.66616 2.34652C10.9025 2.34652 13.5093 4.95338 13.5093 8.18967C13.5093 11.426 10.9025 14.0386 7.66616 14.0386C5.40766 14.0386 3.35138 12.7377 2.38299 10.6974C2.2989 10.5218 2.14877 10.3866 1.96537 10.3214C1.78197 10.2561 1.58019 10.266 1.40409 10.349C1.22815 10.4331 1.09271 10.5835 1.02741 10.7672C0.962117 10.951 0.972296 11.1531 1.05572 11.3293C2.26673 13.8809 4.84181 15.5069 7.66616 15.5069C11.6991 15.5069 14.9849 12.2226 14.9849 8.18967C14.9849 4.15672 11.6991 0.870972 7.66616 0.870972ZM8.44496 5.07736C8.34816 5.07869 8.25257 5.09908 8.16364 5.13737C8.07472 5.17566 7.99422 5.23109 7.92672 5.30049C7.8592 5.37009 7.80608 5.45232 7.77039 5.54248C7.73471 5.63265 7.71717 5.72896 7.71877 5.82591C7.72038 5.92287 7.7411 6.01855 7.77974 6.10748C7.81839 6.19641 7.87421 6.27685 7.94399 6.34417L9.09708 7.45551H4.03128C3.93449 7.45513 3.83857 7.47382 3.74901 7.51051C3.65944 7.5472 3.57797 7.60117 3.50926 7.66935C3.44055 7.73752 3.38595 7.81856 3.34856 7.90784C3.31117 7.99712 3.29173 8.09289 3.29135 8.18968C3.29097 8.28696 3.30985 8.38335 3.3469 8.47329C3.38395 8.56323 3.43844 8.64496 3.50722 8.71374C3.57601 8.78253 3.65773 8.83701 3.74767 8.87406C3.83762 8.91111 3.93401 8.92999 4.03128 8.92961H9.09996L7.944 10.0395C7.87421 10.1068 7.81839 10.1873 7.77975 10.2762C7.7411 10.3651 7.72038 10.4608 7.71878 10.5578C7.71717 10.6547 7.73471 10.751 7.7704 10.8412C7.80608 10.9314 7.8592 11.0136 7.92672 11.0832C8.06253 11.2228 8.24809 11.303 8.44284 11.3062C8.6376 11.3095 8.82571 11.2355 8.96608 11.1005L11.4421 8.72231C11.5134 8.65355 11.5701 8.57114 11.6088 8.48C11.6475 8.38886 11.6674 8.29085 11.6674 8.19183C11.6674 8.09281 11.6475 7.9948 11.6088 7.90366C11.5701 7.81252 11.5134 7.73011 11.4421 7.66135L8.96608 5.27889C8.82556 5.14592 8.63839 5.07354 8.44496 5.07736Z" fill="#3D625E"/>
</svg>
