<svg width="22" height="22" viewBox="0 0 22 22" fill="none" xmlns="http://www.w3.org/2000/svg">
<circle cx="11" cy="11" r="9.75" stroke="#3D625E" stroke-width="2.5"/>
<path d="M16.3974 10.2414C16.2942 10.1265 16.1687 10.0338 16.0286 9.96897C15.8884 9.90413 15.7365 9.8685 15.5822 9.86424C15.4278 9.85999 15.2742 9.88719 15.1307 9.9442C14.9872 10.0012 14.8568 10.0868 14.7474 10.1959L12.1377 12.8055V6.13793C12.1377 5.83613 12.0179 5.5467 11.8045 5.33329C11.591 5.11989 11.3016 5 10.9998 5C10.698 5 10.4086 5.11989 10.1952 5.33329C9.98177 5.5467 9.86188 5.83613 9.86188 6.13793V12.8055L7.31292 10.2414C7.0766 10.0013 6.75462 9.86484 6.41774 9.86207C6.14877 9.85797 5.88787 9.95395 5.68568 10.1314C5.57079 10.2346 5.4781 10.3601 5.41327 10.5002C5.34843 10.6404 5.3128 10.7922 5.30854 10.9466C5.30428 11.101 5.33148 11.2546 5.3885 11.3981C5.44551 11.5416 5.53113 11.672 5.64016 11.7814C6.61539 12.7566 10.9979 17.2 10.9979 17.2C10.9979 17.2 15.3383 12.8252 16.3102 11.8648C16.5261 11.6547 16.6549 11.371 16.6711 11.0702C16.6873 10.7693 16.5895 10.4734 16.3974 10.2414Z" fill="#3D625E"/>
</svg>
