<svg width="317" height="126" viewBox="0 0 317 126" fill="none" xmlns="http://www.w3.org/2000/svg">
<path d="M17.0176 21C15.9238 21 15.2539 20.3164 15.2539 19.168V2.87109C15.2539 1.70898 15.9238 1.03906 17.0176 1.03906C18.125 1.03906 18.7812 1.70898 18.7812 2.87109V18.0195H26.3418C27.2988 18.0195 27.9551 18.5938 27.9551 19.5098C27.9551 20.4258 27.3125 21 26.3418 21H17.0176ZM36.0898 21.2871C31.6602 21.2871 29.0488 18.5117 29.0488 13.8086C29.0488 9.1875 31.7148 6.20703 35.8984 6.20703C39.8633 6.20703 42.5703 9.02344 42.5703 12.9609C42.5703 13.9727 41.9961 14.5742 40.9844 14.5742H32.4395V14.6836C32.4395 17.1035 33.8477 18.6621 36.0625 18.6621C37.5938 18.6621 38.5918 18.1289 39.6855 16.7344C40.041 16.3379 40.3555 16.1875 40.834 16.1875C41.5996 16.1875 42.2012 16.6797 42.2012 17.5C42.2012 17.7598 42.1191 18.0605 41.9688 18.3613C41.0117 20.207 38.8516 21.2871 36.0898 21.2871ZM32.4668 12.332H39.2344C39.166 10.2266 37.8262 8.8457 35.9121 8.8457C33.998 8.8457 32.6035 10.2539 32.4668 12.332ZM45.7148 17.418V9.13281H44.7988C43.9512 9.13281 43.4316 8.62695 43.4316 7.80664C43.4316 7 43.9512 6.50781 44.7988 6.50781H45.7148V4.58008C45.7148 3.48633 46.3711 2.80273 47.4238 2.80273C48.4629 2.80273 49.1191 3.48633 49.1191 4.58008V6.50781H50.6914C51.5391 6.50781 52.0586 7 52.0586 7.80664C52.0586 8.62695 51.5391 9.13281 50.6914 9.13281H49.1191V16.6797C49.1191 17.7734 49.502 18.252 50.4863 18.334L50.7324 18.3613C51.6348 18.4434 52.0996 18.8262 52.0996 19.6191C52.0996 20.6172 51.2246 21.1504 49.666 21.1504H49.5293C47 21.1504 45.7148 19.8926 45.7148 17.418ZM61.8613 26.3867C60.3301 26.3867 59.4961 25.8125 59.4961 24.7734C59.4961 24.0762 59.9883 23.625 60.7812 23.625C61.0684 23.625 61.2051 23.6387 61.5195 23.6387C62.2852 23.6387 63.0781 23.2422 63.584 21.9707L63.8301 21.2598L59.0859 8.77734C58.9629 8.43555 58.8945 8.08008 58.8945 7.80664C58.8945 6.87695 59.6465 6.2207 60.6445 6.2207C61.5059 6.2207 61.9844 6.60352 62.2715 7.56055L65.7305 18.1016H65.7852L69.2441 7.54688C69.5312 6.61719 70.0234 6.2207 70.8848 6.2207C71.8555 6.2207 72.5391 6.86328 72.5391 7.76562C72.5391 8.03906 72.4707 8.42188 72.3477 8.75L67.5762 21.5195C66.2637 25.1289 64.7598 26.3867 61.8613 26.3867ZM80.4141 21.2871C76.1621 21.2871 73.4004 18.457 73.4004 13.7539C73.4004 9.07812 76.1895 6.20703 80.4141 6.20703C84.6387 6.20703 87.4277 9.06445 87.4277 13.7539C87.4277 18.457 84.666 21.2871 80.4141 21.2871ZM80.4141 18.5938C82.5742 18.5938 83.9688 16.8438 83.9688 13.7539C83.9688 10.6777 82.5742 8.91406 80.4141 8.91406C78.2676 8.91406 76.8594 10.6777 76.8594 13.7539C76.8594 16.8438 78.2539 18.5938 80.4141 18.5938ZM94.6875 21.2598C91.543 21.2598 89.5469 19.2227 89.5469 15.873V8.01172C89.5469 6.87695 90.2441 6.2207 91.2422 6.2207C92.2402 6.2207 92.9512 6.87695 92.9512 8.02539V15.1895C92.9512 17.2676 93.9629 18.3887 95.877 18.3887C97.8457 18.3887 99.0625 16.9941 99.0625 14.8887V8.01172C99.0625 6.87695 99.7734 6.2207 100.771 6.2207C101.756 6.2207 102.467 6.87695 102.467 8.02539V19.5508C102.467 20.6445 101.811 21.2734 100.84 21.2734C99.8555 21.2734 99.1855 20.6445 99.1855 19.5508V18.4844H99.1172C98.3516 20.248 96.8887 21.2598 94.6875 21.2598ZM106.951 21.2734C105.926 21.2734 105.256 20.6035 105.256 19.4824V7.94336C105.256 6.87695 105.912 6.2207 106.883 6.2207C107.826 6.2207 108.496 6.87695 108.496 7.94336V9.05078H108.564C108.961 7.35547 110.219 6.26172 111.668 6.26172C112.201 6.26172 112.611 6.39844 112.871 6.63086C113.186 6.89062 113.35 7.30078 113.35 7.86133C113.35 8.39453 113.186 8.79102 112.844 9.06445C112.516 9.35156 112.01 9.50195 111.34 9.51562C109.398 9.5293 108.66 10.7461 108.66 12.5098V19.4824C108.66 20.6035 107.977 21.2734 106.951 21.2734ZM123.139 21.2734C122.113 21.2734 121.43 20.6445 121.43 19.4961V9.13281H120.527C119.762 9.13281 119.215 8.66797 119.215 7.83398C119.215 7.04102 119.762 6.54883 120.527 6.54883H121.43V5.26367C121.43 2.43359 122.811 1.13477 125.422 1.12109C127.227 1.12109 128.033 1.69531 128.033 2.54297C128.033 3.0625 127.787 3.37695 127.281 3.52734C127.062 3.58203 126.83 3.60938 126.529 3.62305C125.285 3.65039 124.779 4.19727 124.779 5.41406V6.54883H126.611C127.363 6.54883 127.91 7.04102 127.91 7.83398C127.91 8.66797 127.363 9.13281 126.611 9.13281H124.834V19.4961C124.834 20.6445 124.15 21.2734 123.139 21.2734ZM135.812 21.2871C131.561 21.2871 128.799 18.457 128.799 13.7539C128.799 9.07812 131.588 6.20703 135.812 6.20703C140.037 6.20703 142.826 9.06445 142.826 13.7539C142.826 18.457 140.064 21.2871 135.812 21.2871ZM135.812 18.5938C137.973 18.5938 139.367 16.8438 139.367 13.7539C139.367 10.6777 137.973 8.91406 135.812 8.91406C133.666 8.91406 132.258 10.6777 132.258 13.7539C132.258 16.8438 133.652 18.5938 135.812 18.5938ZM146.818 21.2734C145.82 21.2734 145.109 20.6309 145.109 19.4824V2.78906C145.109 1.64062 145.82 0.998047 146.818 0.998047C147.816 0.998047 148.514 1.64062 148.514 2.78906V19.4824C148.514 20.6309 147.816 21.2734 146.818 21.2734ZM153.217 21.2734C152.219 21.2734 151.508 20.6309 151.508 19.4824V2.78906C151.508 1.64062 152.219 0.998047 153.217 0.998047C154.215 0.998047 154.912 1.64062 154.912 2.78906V19.4824C154.912 20.6309 154.215 21.2734 153.217 21.2734ZM164.223 21.2871C159.971 21.2871 157.209 18.457 157.209 13.7539C157.209 9.07812 159.998 6.20703 164.223 6.20703C168.447 6.20703 171.236 9.06445 171.236 13.7539C171.236 18.457 168.475 21.2871 164.223 21.2871ZM164.223 18.5938C166.383 18.5938 167.777 16.8438 167.777 13.7539C167.777 10.6777 166.383 8.91406 164.223 8.91406C162.076 8.91406 160.668 10.6777 160.668 13.7539C160.668 16.8438 162.062 18.5938 164.223 18.5938ZM177.922 21.2734C176.773 21.2734 176.145 20.7402 175.789 19.5234L172.645 8.69531C172.535 8.27148 172.48 7.98438 172.48 7.68359C172.48 6.82227 173.15 6.2207 174.121 6.2207C174.969 6.2207 175.502 6.71289 175.707 7.65625L178.113 17.6367H178.182L180.711 7.7793C180.943 6.76758 181.613 6.2207 182.652 6.2207C183.678 6.2207 184.334 6.75391 184.566 7.7793L187.109 17.6367H187.191L189.598 7.64258C189.803 6.69922 190.322 6.2207 191.156 6.2207C192.127 6.2207 192.783 6.80859 192.783 7.66992C192.783 7.9707 192.729 8.25781 192.605 8.66797L189.475 19.5234C189.133 20.7129 188.463 21.2734 187.314 21.2734C186.098 21.2734 185.441 20.7539 185.127 19.5098L182.639 10.4043H182.57L180.082 19.5234C179.795 20.7129 179.098 21.2734 177.922 21.2734ZM201 21.2871C196.57 21.2871 193.959 18.5117 193.959 13.8086C193.959 9.1875 196.625 6.20703 200.809 6.20703C204.773 6.20703 207.48 9.02344 207.48 12.9609C207.48 13.9727 206.906 14.5742 205.895 14.5742H197.35V14.6836C197.35 17.1035 198.758 18.6621 200.973 18.6621C202.504 18.6621 203.502 18.1289 204.596 16.7344C204.951 16.3379 205.266 16.1875 205.744 16.1875C206.51 16.1875 207.111 16.6797 207.111 17.5C207.111 17.7598 207.029 18.0605 206.879 18.3613C205.922 20.207 203.762 21.2871 201 21.2871ZM197.377 12.332H204.145C204.076 10.2266 202.736 8.8457 200.822 8.8457C198.908 8.8457 197.514 10.2539 197.377 12.332ZM211.377 21.2734C210.352 21.2734 209.682 20.6035 209.682 19.4824V7.94336C209.682 6.87695 210.338 6.2207 211.309 6.2207C212.252 6.2207 212.922 6.87695 212.922 7.94336V9.05078H212.99C213.387 7.35547 214.645 6.26172 216.094 6.26172C216.627 6.26172 217.037 6.39844 217.297 6.63086C217.611 6.89062 217.775 7.30078 217.775 7.86133C217.775 8.39453 217.611 8.79102 217.27 9.06445C216.941 9.35156 216.436 9.50195 215.766 9.51562C213.824 9.5293 213.086 10.7461 213.086 12.5098V19.4824C213.086 20.6035 212.402 21.2734 211.377 21.2734ZM224.898 21.2871C221.836 21.2871 219.689 20.1113 218.992 18.375C218.896 18.1289 218.855 17.9102 218.855 17.7051C218.855 16.8848 219.457 16.3652 220.277 16.3652C220.838 16.3652 221.316 16.625 221.754 17.1992C222.52 18.3066 223.395 18.7988 225.021 18.7988C226.607 18.7988 227.66 18.1289 227.66 17.0352C227.66 16.1602 227.113 15.6816 225.623 15.3398L223.271 14.8066C220.441 14.1641 219.047 12.7695 219.047 10.6641C219.047 7.9707 221.371 6.20703 224.953 6.20703C227.742 6.20703 229.902 7.57422 230.354 9.24219C230.395 9.41992 230.422 9.58398 230.422 9.74805C230.422 10.459 229.971 10.9648 229.109 10.9648C228.617 10.9648 228.125 10.7871 227.811 10.3359C227.141 9.33789 226.307 8.70898 224.871 8.70898C223.381 8.70898 222.355 9.43359 222.355 10.4727C222.355 11.3203 222.984 11.8945 224.488 12.2363L226.799 12.7422C229.861 13.4395 231.078 14.5469 231.078 16.6934C231.078 19.4688 228.59 21.2871 224.898 21.2871ZM240.635 21.2734C239.637 21.2734 238.926 20.6309 238.926 19.4824V2.78906C238.926 1.64062 239.637 0.998047 240.635 0.998047C241.633 0.998047 242.33 1.64062 242.33 2.78906V12.4961H242.371L248.059 6.87695C248.496 6.41211 248.865 6.2207 249.385 6.2207C250.232 6.2207 250.875 6.86328 250.875 7.68359C250.875 8.18945 250.725 8.50391 250.26 8.94141L246.131 12.8516L250.67 18.5254C251.025 19.0176 251.135 19.3184 251.135 19.7559C251.135 20.6445 250.465 21.2734 249.521 21.2734C248.852 21.2734 248.455 21.041 247.963 20.3301L243.615 14.8203L242.33 16.0234V19.4824C242.33 20.6309 241.633 21.2734 240.635 21.2734ZM255.045 21.2734C254.047 21.2734 253.35 20.6309 253.35 19.4824V7.94336C253.35 6.89062 253.965 6.2207 254.977 6.2207C255.975 6.2207 256.658 6.89062 256.658 7.94336V8.95508H256.727C257.506 7.23242 259.01 6.23438 261.238 6.23438C264.438 6.23438 266.256 8.28516 266.256 11.6348V19.4824C266.256 20.6309 265.559 21.2734 264.561 21.2734C263.562 21.2734 262.852 20.6309 262.852 19.4824V12.3184C262.852 10.2676 261.895 9.11914 259.953 9.11914C257.998 9.11914 256.754 10.5273 256.754 12.6055V19.4824C256.754 20.6309 256.043 21.2734 255.045 21.2734ZM275.402 21.2871C271.15 21.2871 268.389 18.457 268.389 13.7539C268.389 9.07812 271.178 6.20703 275.402 6.20703C279.627 6.20703 282.416 9.06445 282.416 13.7539C282.416 18.457 279.654 21.2871 275.402 21.2871ZM275.402 18.5938C277.562 18.5938 278.957 16.8438 278.957 13.7539C278.957 10.6777 277.562 8.91406 275.402 8.91406C273.256 8.91406 271.848 10.6777 271.848 13.7539C271.848 16.8438 273.242 18.5938 275.402 18.5938ZM289.102 21.2734C287.953 21.2734 287.324 20.7402 286.969 19.5234L283.824 8.69531C283.715 8.27148 283.66 7.98438 283.66 7.68359C283.66 6.82227 284.33 6.2207 285.301 6.2207C286.148 6.2207 286.682 6.71289 286.887 7.65625L289.293 17.6367H289.361L291.891 7.7793C292.123 6.76758 292.793 6.2207 293.832 6.2207C294.857 6.2207 295.514 6.75391 295.746 7.7793L298.289 17.6367H298.371L300.777 7.64258C300.982 6.69922 301.502 6.2207 302.336 6.2207C303.307 6.2207 303.963 6.80859 303.963 7.66992C303.963 7.9707 303.908 8.25781 303.785 8.66797L300.654 19.5234C300.312 20.7129 299.643 21.2734 298.494 21.2734C297.277 21.2734 296.621 20.7539 296.307 19.5098L293.818 10.4043H293.75L291.262 19.5234C290.975 20.7129 290.277 21.2734 289.102 21.2734ZM3.87891 59.3867C2.34766 59.3867 1.51367 58.8125 1.51367 57.7734C1.51367 57.0762 2.00586 56.625 2.79883 56.625C3.08594 56.625 3.22266 56.6387 3.53711 56.6387C4.30273 56.6387 5.0957 56.2422 5.60156 54.9707L5.84766 54.2598L1.10352 41.7773C0.980469 41.4355 0.912109 41.0801 0.912109 40.8066C0.912109 39.877 1.66406 39.2207 2.66211 39.2207C3.52344 39.2207 4.00195 39.6035 4.28906 40.5605L7.74805 51.1016H7.80273L11.2617 40.5469C11.5488 39.6172 12.041 39.2207 12.9023 39.2207C13.873 39.2207 14.5566 39.8633 14.5566 40.7656C14.5566 41.0391 14.4883 41.4219 14.3652 41.75L9.59375 54.5195C8.28125 58.1289 6.77734 59.3867 3.87891 59.3867ZM22.4316 54.2871C18.1797 54.2871 15.418 51.457 15.418 46.7539C15.418 42.0781 18.207 39.207 22.4316 39.207C26.6562 39.207 29.4453 42.0645 29.4453 46.7539C29.4453 51.457 26.6836 54.2871 22.4316 54.2871ZM22.4316 51.5938C24.5918 51.5938 25.9863 49.8438 25.9863 46.7539C25.9863 43.6777 24.5918 41.9141 22.4316 41.9141C20.2852 41.9141 18.877 43.6777 18.877 46.7539C18.877 49.8438 20.2715 51.5938 22.4316 51.5938ZM36.7051 54.2598C33.5605 54.2598 31.5645 52.2227 31.5645 48.873V41.0117C31.5645 39.877 32.2617 39.2207 33.2598 39.2207C34.2578 39.2207 34.9688 39.877 34.9688 41.0254V48.1895C34.9688 50.2676 35.9805 51.3887 37.8945 51.3887C39.8633 51.3887 41.0801 49.9941 41.0801 47.8887V41.0117C41.0801 39.877 41.791 39.2207 42.7891 39.2207C43.7734 39.2207 44.4844 39.877 44.4844 41.0254V52.5508C44.4844 53.6445 43.8281 54.2734 42.8574 54.2734C41.873 54.2734 41.2031 53.6445 41.2031 52.5508V51.4844H41.1348C40.3691 53.248 38.9062 54.2598 36.7051 54.2598ZM48.9961 41.9961C48.1895 41.9961 47.6836 41.4629 47.7246 40.7383C47.7246 40.5879 47.7383 40.5059 47.752 40.4512L48.5449 35.4062C48.6953 34.4082 49.2559 33.9844 50.1445 33.9844C51.0605 33.9844 51.6758 34.5312 51.6758 35.3926C51.6758 35.6523 51.6348 35.8848 51.5664 36.1719L50.4043 40.8203C50.2266 41.6133 49.8027 41.9961 48.9961 41.9961ZM56.0234 54.2734C54.998 54.2734 54.3281 53.6035 54.3281 52.4824V40.9434C54.3281 39.877 54.9844 39.2207 55.9551 39.2207C56.8984 39.2207 57.5684 39.877 57.5684 40.9434V42.0508H57.6367C58.0332 40.3555 59.291 39.2617 60.7402 39.2617C61.2734 39.2617 61.6836 39.3984 61.9434 39.6309C62.2578 39.8906 62.4219 40.3008 62.4219 40.8613C62.4219 41.3945 62.2578 41.791 61.916 42.0645C61.5879 42.3516 61.082 42.502 60.4121 42.5156C58.4707 42.5293 57.7324 43.7461 57.7324 45.5098V52.4824C57.7324 53.6035 57.0488 54.2734 56.0234 54.2734ZM69.8457 54.2871C65.416 54.2871 62.8047 51.5117 62.8047 46.8086C62.8047 42.1875 65.4707 39.207 69.6543 39.207C73.6191 39.207 76.3262 42.0234 76.3262 45.9609C76.3262 46.9727 75.752 47.5742 74.7402 47.5742H66.1953V47.6836C66.1953 50.1035 67.6035 51.6621 69.8184 51.6621C71.3496 51.6621 72.3477 51.1289 73.4414 49.7344C73.7969 49.3379 74.1113 49.1875 74.5898 49.1875C75.3555 49.1875 75.957 49.6797 75.957 50.5C75.957 50.7598 75.875 51.0605 75.7246 51.3613C74.7676 53.207 72.6074 54.2871 69.8457 54.2871ZM66.2227 45.332H72.9902C72.9219 43.2266 71.582 41.8457 69.668 41.8457C67.7539 41.8457 66.3594 43.2539 66.2227 45.332ZM90.5449 54.2871C86.293 54.2871 83.5312 51.457 83.5312 46.7539C83.5312 42.0781 86.3203 39.207 90.5449 39.207C94.7695 39.207 97.5586 42.0645 97.5586 46.7539C97.5586 51.457 94.7969 54.2871 90.5449 54.2871ZM90.5449 51.5938C92.7051 51.5938 94.0996 49.8438 94.0996 46.7539C94.0996 43.6777 92.7051 41.9141 90.5449 41.9141C88.3984 41.9141 86.9902 43.6777 86.9902 46.7539C86.9902 49.8438 88.3848 51.5938 90.5449 51.5938ZM101.441 54.2734C100.443 54.2734 99.7461 53.6309 99.7461 52.4824V40.9434C99.7461 39.8906 100.361 39.2207 101.373 39.2207C102.371 39.2207 103.055 39.8906 103.055 40.9434V41.9551H103.123C103.902 40.2324 105.406 39.2344 107.635 39.2344C110.834 39.2344 112.652 41.2852 112.652 44.6348V52.4824C112.652 53.6309 111.955 54.2734 110.957 54.2734C109.959 54.2734 109.248 53.6309 109.248 52.4824V45.3184C109.248 43.2676 108.291 42.1191 106.35 42.1191C104.395 42.1191 103.15 43.5273 103.15 45.6055V52.4824C103.15 53.6309 102.439 54.2734 101.441 54.2734ZM123.098 54.2324C122.004 54.2324 121.334 53.5625 121.334 52.4004V36.1035C121.334 34.9551 122.004 34.2715 123.098 34.2715H132.531C133.502 34.2715 134.145 34.8457 134.145 35.7617C134.145 36.6777 133.488 37.252 132.531 37.252H124.861V43.0762H131.82C132.75 43.0762 133.365 43.623 133.365 44.5117C133.365 45.4004 132.75 45.9473 131.82 45.9473H124.861V52.4004C124.861 53.5625 124.205 54.2324 123.098 54.2324ZM137.836 54.2734C136.811 54.2734 136.141 53.6035 136.141 52.4824V40.9434C136.141 39.877 136.797 39.2207 137.768 39.2207C138.711 39.2207 139.381 39.877 139.381 40.9434V42.0508H139.449C139.846 40.3555 141.104 39.2617 142.553 39.2617C143.086 39.2617 143.496 39.3984 143.756 39.6309C144.07 39.8906 144.234 40.3008 144.234 40.8613C144.234 41.3945 144.07 41.791 143.729 42.0645C143.4 42.3516 142.895 42.502 142.225 42.5156C140.283 42.5293 139.545 43.7461 139.545 45.5098V52.4824C139.545 53.6035 138.861 54.2734 137.836 54.2734ZM147.543 37.4707C146.49 37.4707 145.656 36.6504 145.656 35.625C145.656 34.5859 146.49 33.7793 147.543 33.7793C148.609 33.7793 149.443 34.5859 149.443 35.625C149.443 36.6504 148.609 37.4707 147.543 37.4707ZM147.543 54.2734C146.504 54.2734 145.848 53.5898 145.848 52.4824V41.0117C145.848 39.918 146.504 39.2207 147.543 39.2207C148.582 39.2207 149.252 39.918 149.252 41.0254V52.4824C149.252 53.5898 148.582 54.2734 147.543 54.2734ZM158.549 54.2871C154.119 54.2871 151.508 51.5117 151.508 46.8086C151.508 42.1875 154.174 39.207 158.357 39.207C162.322 39.207 165.029 42.0234 165.029 45.9609C165.029 46.9727 164.455 47.5742 163.443 47.5742H154.898V47.6836C154.898 50.1035 156.307 51.6621 158.521 51.6621C160.053 51.6621 161.051 51.1289 162.145 49.7344C162.5 49.3379 162.814 49.1875 163.293 49.1875C164.059 49.1875 164.66 49.6797 164.66 50.5C164.66 50.7598 164.578 51.0605 164.428 51.3613C163.471 53.207 161.311 54.2871 158.549 54.2871ZM154.926 45.332H161.693C161.625 43.2266 160.285 41.8457 158.371 41.8457C156.457 41.8457 155.062 43.2539 154.926 45.332ZM168.926 54.2734C167.928 54.2734 167.23 53.6309 167.23 52.4824V40.9434C167.23 39.8906 167.846 39.2207 168.857 39.2207C169.855 39.2207 170.539 39.8906 170.539 40.9434V41.9551H170.607C171.387 40.2324 172.891 39.2344 175.119 39.2344C178.318 39.2344 180.137 41.2852 180.137 44.6348V52.4824C180.137 53.6309 179.439 54.2734 178.441 54.2734C177.443 54.2734 176.732 53.6309 176.732 52.4824V45.3184C176.732 43.2676 175.775 42.1191 173.834 42.1191C171.879 42.1191 170.635 43.5273 170.635 45.6055V52.4824C170.635 53.6309 169.924 54.2734 168.926 54.2734ZM188.285 54.2324C184.635 54.2324 182.27 51.3477 182.27 46.7402C182.27 42.1602 184.635 39.2617 188.285 39.2617C190.363 39.2617 192.004 40.3418 192.77 41.9414H192.852V35.7891C192.852 34.6406 193.549 33.998 194.547 33.998C195.545 33.998 196.256 34.6406 196.256 35.7891V52.5645C196.256 53.6582 195.559 54.2734 194.574 54.2734C193.59 54.2734 192.852 53.6719 192.852 52.5645V51.4297H192.783C192.086 53.0977 190.527 54.2324 188.285 54.2324ZM189.311 51.4434C191.457 51.4434 192.865 49.625 192.865 46.7539C192.865 43.9102 191.457 42.0645 189.311 42.0645C187.123 42.0645 185.756 43.8828 185.756 46.7539C185.756 49.6387 187.109 51.4434 189.311 51.4434ZM201.492 54.1504C200.385 54.1504 199.523 53.2891 199.523 52.1816C199.523 51.0879 200.385 50.2129 201.492 50.2129C202.586 50.2129 203.447 51.0879 203.447 52.1816C203.447 53.2891 202.586 54.1504 201.492 54.1504ZM206.318 50.418V42.1328H205.402C204.555 42.1328 204.035 41.627 204.035 40.8066C204.035 40 204.555 39.5078 205.402 39.5078H206.318V37.5801C206.318 36.4863 206.975 35.8027 208.027 35.8027C209.066 35.8027 209.723 36.4863 209.723 37.5801V39.5078H211.295C212.143 39.5078 212.662 40 212.662 40.8066C212.662 41.627 212.143 42.1328 211.295 42.1328H209.723V49.6797C209.723 50.7734 210.105 51.252 211.09 51.334L211.336 51.3613C212.238 51.4434 212.703 51.8262 212.703 52.6191C212.703 53.6172 211.828 54.1504 210.27 54.1504H210.133C207.604 54.1504 206.318 52.8926 206.318 50.418ZM220.947 54.2871C216.518 54.2871 213.906 51.5117 213.906 46.8086C213.906 42.1875 216.572 39.207 220.756 39.207C224.721 39.207 227.428 42.0234 227.428 45.9609C227.428 46.9727 226.854 47.5742 225.842 47.5742H217.297V47.6836C217.297 50.1035 218.705 51.6621 220.92 51.6621C222.451 51.6621 223.449 51.1289 224.543 49.7344C224.898 49.3379 225.213 49.1875 225.691 49.1875C226.457 49.1875 227.059 49.6797 227.059 50.5C227.059 50.7598 226.977 51.0605 226.826 51.3613C225.869 53.207 223.709 54.2871 220.947 54.2871ZM217.324 45.332H224.092C224.023 43.2266 222.684 41.8457 220.77 41.8457C218.855 41.8457 217.461 43.2539 217.324 45.332ZM236 54.2871C231.762 54.2871 229.027 51.416 229.027 46.7676C229.027 42.1465 231.748 39.207 235.973 39.207C238.816 39.207 241.236 40.6699 241.934 42.707C242.043 42.9941 242.111 43.2812 242.111 43.5273C242.111 44.375 241.469 44.8945 240.648 44.8945C239.965 44.8945 239.555 44.6074 239.158 43.9238C238.434 42.5977 237.477 41.9688 236.068 41.9688C233.881 41.9688 232.486 43.7871 232.486 46.7539C232.486 49.7617 233.895 51.5391 236.055 51.5391C237.559 51.5391 238.488 50.8418 239.145 49.6797C239.609 48.9141 239.979 48.627 240.717 48.627C241.523 48.627 242.152 49.1738 242.152 50.0215C242.152 50.2812 242.084 50.5684 241.947 50.8965C241.141 52.8789 238.734 54.2871 236 54.2871ZM246.254 54.2734C245.256 54.2734 244.545 53.6309 244.545 52.4824V35.748C244.545 34.668 245.188 33.998 246.227 33.998C247.279 33.998 247.908 34.668 247.908 35.748V41.9961H247.977C248.756 40.2324 250.355 39.2344 252.557 39.2344C255.756 39.2344 257.629 41.3398 257.629 44.6621V52.4824C257.629 53.6309 256.918 54.2734 255.92 54.2734C254.922 54.2734 254.225 53.6309 254.225 52.4824V45.3594C254.225 43.3359 253.213 42.1191 251.244 42.1191C249.193 42.1191 247.949 43.541 247.949 45.6738V52.4824C247.949 53.6309 247.252 54.2734 246.254 54.2734ZM270.549 54.2734C269.4 54.2734 268.771 53.7402 268.416 52.5234L265.271 41.6953C265.162 41.2715 265.107 40.9844 265.107 40.6836C265.107 39.8223 265.777 39.2207 266.748 39.2207C267.596 39.2207 268.129 39.7129 268.334 40.6562L270.74 50.6367H270.809L273.338 40.7793C273.57 39.7676 274.24 39.2207 275.279 39.2207C276.305 39.2207 276.961 39.7539 277.193 40.7793L279.736 50.6367H279.818L282.225 40.6426C282.43 39.6992 282.949 39.2207 283.783 39.2207C284.754 39.2207 285.41 39.8086 285.41 40.6699C285.41 40.9707 285.355 41.2578 285.232 41.668L282.102 52.5234C281.76 53.7129 281.09 54.2734 279.941 54.2734C278.725 54.2734 278.068 53.7539 277.754 52.5098L275.266 43.4043H275.197L272.709 52.5234C272.422 53.7129 271.725 54.2734 270.549 54.2734ZM289.102 37.4707C288.049 37.4707 287.215 36.6504 287.215 35.625C287.215 34.5859 288.049 33.7793 289.102 33.7793C290.168 33.7793 291.002 34.5859 291.002 35.625C291.002 36.6504 290.168 37.4707 289.102 37.4707ZM289.102 54.2734C288.062 54.2734 287.406 53.5898 287.406 52.4824V41.0117C287.406 39.918 288.062 39.2207 289.102 39.2207C290.141 39.2207 290.811 39.918 290.811 41.0254V52.4824C290.811 53.5898 290.141 54.2734 289.102 54.2734ZM294.611 50.418V42.1328H293.695C292.848 42.1328 292.328 41.627 292.328 40.8066C292.328 40 292.848 39.5078 293.695 39.5078H294.611V37.5801C294.611 36.4863 295.268 35.8027 296.32 35.8027C297.359 35.8027 298.016 36.4863 298.016 37.5801V39.5078H299.588C300.436 39.5078 300.955 40 300.955 40.8066C300.955 41.627 300.436 42.1328 299.588 42.1328H298.016V49.6797C298.016 50.7734 298.398 51.252 299.383 51.334L299.629 51.3613C300.531 51.4434 300.996 51.8262 300.996 52.6191C300.996 53.6172 300.121 54.1504 298.562 54.1504H298.426C295.896 54.1504 294.611 52.8926 294.611 50.418ZM304.879 54.2734C303.881 54.2734 303.17 53.6309 303.17 52.4824V35.748C303.17 34.668 303.812 33.998 304.852 33.998C305.904 33.998 306.533 34.668 306.533 35.748V41.9961H306.602C307.381 40.2324 308.98 39.2344 311.182 39.2344C314.381 39.2344 316.254 41.3398 316.254 44.6621V52.4824C316.254 53.6309 315.543 54.2734 314.545 54.2734C313.547 54.2734 312.85 53.6309 312.85 52.4824V45.3594C312.85 43.3359 311.838 42.1191 309.869 42.1191C307.818 42.1191 306.574 43.541 306.574 45.6738V52.4824C306.574 53.6309 305.877 54.2734 304.879 54.2734ZM34.3262 87.2324C31.5234 87.2324 29.4863 85.4688 29.4863 82.8574C29.4863 80.2871 31.4688 78.7422 34.9961 78.5234L38.8379 78.3047V77.2656C38.8379 75.748 37.8125 74.873 36.1309 74.873C34.8047 74.873 33.9434 75.3242 33.0957 76.5684C32.7402 77.0332 32.2891 77.252 31.7148 77.252C30.8809 77.252 30.2793 76.7051 30.2793 75.8848C30.2793 75.5703 30.3613 75.2695 30.5117 74.9551C31.25 73.2734 33.4922 72.207 36.2676 72.207C39.8633 72.207 42.2012 74.1074 42.2012 77.0195V85.5645C42.2012 86.6582 41.5039 87.2734 40.5469 87.2734C39.6172 87.2734 38.9746 86.7129 38.9199 85.7012V84.6895H38.8516C38.0176 86.2617 36.1992 87.2324 34.3262 87.2324ZM35.3652 84.6621C37.2793 84.6621 38.8379 83.377 38.8379 81.627V80.5195L35.4746 80.7246C33.834 80.834 32.8906 81.5723 32.8906 82.7207C32.8906 83.9102 33.8887 84.6621 35.3652 84.6621ZM46.6445 87.2734C45.6465 87.2734 44.9492 86.6309 44.9492 85.4824V73.9434C44.9492 72.8906 45.5645 72.2207 46.5762 72.2207C47.5742 72.2207 48.2578 72.8906 48.2578 73.9434V74.9551H48.3262C49.1055 73.2324 50.6094 72.2344 52.8379 72.2344C56.0371 72.2344 57.8555 74.2852 57.8555 77.6348V85.4824C57.8555 86.6309 57.1582 87.2734 56.1602 87.2734C55.1621 87.2734 54.4512 86.6309 54.4512 85.4824V78.3184C54.4512 76.2676 53.4941 75.1191 51.5527 75.1191C49.5977 75.1191 48.3535 76.5273 48.3535 78.6055V85.4824C48.3535 86.6309 47.6426 87.2734 46.6445 87.2734ZM70.4473 87.2324C67.6445 87.2324 65.6074 85.4688 65.6074 82.8574C65.6074 80.2871 67.5898 78.7422 71.1172 78.5234L74.959 78.3047V77.2656C74.959 75.748 73.9336 74.873 72.252 74.873C70.9258 74.873 70.0645 75.3242 69.2168 76.5684C68.8613 77.0332 68.4102 77.252 67.8359 77.252C67.002 77.252 66.4004 76.7051 66.4004 75.8848C66.4004 75.5703 66.4824 75.2695 66.6328 74.9551C67.3711 73.2734 69.6133 72.207 72.3887 72.207C75.9844 72.207 78.3223 74.1074 78.3223 77.0195V85.5645C78.3223 86.6582 77.625 87.2734 76.668 87.2734C75.7383 87.2734 75.0957 86.7129 75.041 85.7012V84.6895H74.9727C74.1387 86.2617 72.3203 87.2324 70.4473 87.2324ZM71.4863 84.6621C73.4004 84.6621 74.959 83.377 74.959 81.627V80.5195L71.5957 80.7246C69.9551 80.834 69.0117 81.5723 69.0117 82.7207C69.0117 83.9102 70.0098 84.6621 71.4863 84.6621ZM86.1426 87.2598C82.998 87.2598 81.002 85.2227 81.002 81.873V74.0117C81.002 72.877 81.6992 72.2207 82.6973 72.2207C83.6953 72.2207 84.4062 72.877 84.4062 74.0254V81.1895C84.4062 83.2676 85.418 84.3887 87.332 84.3887C89.3008 84.3887 90.5176 82.9941 90.5176 80.8887V74.0117C90.5176 72.877 91.2285 72.2207 92.2266 72.2207C93.2109 72.2207 93.9219 72.877 93.9219 74.0254V85.5508C93.9219 86.6445 93.2656 87.2734 92.2949 87.2734C91.3105 87.2734 90.6406 86.6445 90.6406 85.5508V84.4844H90.5723C89.8066 86.248 88.3438 87.2598 86.1426 87.2598ZM102.959 92.4551C100.184 92.4414 98.0508 91.375 97.0801 89.8164C96.875 89.4746 96.793 89.1465 96.793 88.791C96.793 88.0391 97.3535 87.4785 98.2148 87.4785C98.6934 87.4785 99.0352 87.6426 99.459 88.0527C100.594 89.1875 101.605 89.7344 102.986 89.748C105.297 89.7754 106.678 88.4766 106.678 86.5488V84.2383H106.609C105.857 85.7969 104.148 86.8496 102.07 86.8496C98.4336 86.8496 96.1094 84.0332 96.1094 79.5762C96.1094 75.0371 98.4062 72.2617 102.139 72.2617C104.203 72.2617 105.803 73.3281 106.637 74.9688H106.691V73.957C106.691 72.8359 107.43 72.2207 108.4 72.2207C109.385 72.2207 110.096 72.8359 110.096 73.957V86.5352C110.096 90.1855 107.43 92.4824 102.959 92.4551ZM103.109 84.1973C105.283 84.1973 106.705 82.4336 106.705 79.6035C106.705 76.7871 105.283 74.9551 103.109 74.9551C100.963 74.9551 99.5957 76.7598 99.5957 79.6035C99.5957 82.4746 100.963 84.1973 103.109 84.1973ZM114.566 87.2734C113.541 87.2734 112.871 86.6172 112.871 85.4824V73.957C112.871 72.8496 113.541 72.2207 114.498 72.2207C115.455 72.2207 116.139 72.8496 116.139 73.957V75.0234H116.207C116.836 73.3418 118.367 72.2344 120.336 72.2344C122.387 72.2344 123.85 73.2871 124.383 75.1465H124.465C125.162 73.3555 126.885 72.2344 128.977 72.2344C131.834 72.2344 133.707 74.1621 133.707 77.0605V85.4824C133.707 86.6172 133.023 87.2734 132.012 87.2734C130.986 87.2734 130.303 86.6172 130.303 85.4824V77.8945C130.303 76.1172 129.373 75.1055 127.705 75.1055C126.064 75.1055 124.943 76.3086 124.943 78.0449V85.4824C124.943 86.6172 124.301 87.2734 123.289 87.2734C122.264 87.2734 121.635 86.6172 121.635 85.4824V77.7168C121.635 76.1035 120.65 75.1055 119.064 75.1055C117.424 75.1055 116.275 76.377 116.275 78.127V85.4824C116.275 86.6172 115.578 87.2734 114.566 87.2734ZM142.881 87.2871C138.451 87.2871 135.84 84.5117 135.84 79.8086C135.84 75.1875 138.506 72.207 142.689 72.207C146.654 72.207 149.361 75.0234 149.361 78.9609C149.361 79.9727 148.787 80.5742 147.775 80.5742H139.23V80.6836C139.23 83.1035 140.639 84.6621 142.854 84.6621C144.385 84.6621 145.383 84.1289 146.477 82.7344C146.832 82.3379 147.146 82.1875 147.625 82.1875C148.391 82.1875 148.992 82.6797 148.992 83.5C148.992 83.7598 148.91 84.0605 148.76 84.3613C147.803 86.207 145.643 87.2871 142.881 87.2871ZM139.258 78.332H146.025C145.957 76.2266 144.617 74.8457 142.703 74.8457C140.789 74.8457 139.395 76.2539 139.258 78.332ZM153.258 87.2734C152.26 87.2734 151.562 86.6309 151.562 85.4824V73.9434C151.562 72.8906 152.178 72.2207 153.189 72.2207C154.188 72.2207 154.871 72.8906 154.871 73.9434V74.9551H154.939C155.719 73.2324 157.223 72.2344 159.451 72.2344C162.65 72.2344 164.469 74.2852 164.469 77.6348V85.4824C164.469 86.6309 163.771 87.2734 162.773 87.2734C161.775 87.2734 161.064 86.6309 161.064 85.4824V78.3184C161.064 76.2676 160.107 75.1191 158.166 75.1191C156.211 75.1191 154.967 76.5273 154.967 78.6055V85.4824C154.967 86.6309 154.256 87.2734 153.258 87.2734ZM168.146 83.418V75.1328H167.23C166.383 75.1328 165.863 74.627 165.863 73.8066C165.863 73 166.383 72.5078 167.23 72.5078H168.146V70.5801C168.146 69.4863 168.803 68.8027 169.855 68.8027C170.895 68.8027 171.551 69.4863 171.551 70.5801V72.5078H173.123C173.971 72.5078 174.49 73 174.49 73.8066C174.49 74.627 173.971 75.1328 173.123 75.1328H171.551V82.6797C171.551 83.7734 171.934 84.252 172.918 84.334L173.164 84.3613C174.066 84.4434 174.531 84.8262 174.531 85.6191C174.531 86.6172 173.656 87.1504 172.098 87.1504H171.961C169.432 87.1504 168.146 85.8926 168.146 83.418ZM182.775 87.2871C178.346 87.2871 175.734 84.5117 175.734 79.8086C175.734 75.1875 178.4 72.207 182.584 72.207C186.549 72.207 189.256 75.0234 189.256 78.9609C189.256 79.9727 188.682 80.5742 187.67 80.5742H179.125V80.6836C179.125 83.1035 180.533 84.6621 182.748 84.6621C184.279 84.6621 185.277 84.1289 186.371 82.7344C186.727 82.3379 187.041 82.1875 187.52 82.1875C188.285 82.1875 188.887 82.6797 188.887 83.5C188.887 83.7598 188.805 84.0605 188.654 84.3613C187.697 86.207 185.537 87.2871 182.775 87.2871ZM179.152 78.332H185.92C185.852 76.2266 184.512 74.8457 182.598 74.8457C180.684 74.8457 179.289 76.2539 179.152 78.332ZM196.871 87.2324C193.221 87.2324 190.855 84.3477 190.855 79.7402C190.855 75.1602 193.221 72.2617 196.871 72.2617C198.949 72.2617 200.59 73.3418 201.355 74.9414H201.438V68.7891C201.438 67.6406 202.135 66.998 203.133 66.998C204.131 66.998 204.842 67.6406 204.842 68.7891V85.5645C204.842 86.6582 204.145 87.2734 203.16 87.2734C202.176 87.2734 201.438 86.6719 201.438 85.5645V84.4297H201.369C200.672 86.0977 199.113 87.2324 196.871 87.2324ZM197.896 84.4434C200.043 84.4434 201.451 82.625 201.451 79.7539C201.451 76.9102 200.043 75.0645 197.896 75.0645C195.709 75.0645 194.342 76.8828 194.342 79.7539C194.342 82.6387 195.695 84.4434 197.896 84.4434ZM217.557 87.2324C214.754 87.2324 212.717 85.4688 212.717 82.8574C212.717 80.2871 214.699 78.7422 218.227 78.5234L222.068 78.3047V77.2656C222.068 75.748 221.043 74.873 219.361 74.873C218.035 74.873 217.174 75.3242 216.326 76.5684C215.971 77.0332 215.52 77.252 214.945 77.252C214.111 77.252 213.51 76.7051 213.51 75.8848C213.51 75.5703 213.592 75.2695 213.742 74.9551C214.48 73.2734 216.723 72.207 219.498 72.207C223.094 72.207 225.432 74.1074 225.432 77.0195V85.5645C225.432 86.6582 224.734 87.2734 223.777 87.2734C222.848 87.2734 222.205 86.7129 222.15 85.7012V84.6895H222.082C221.248 86.2617 219.43 87.2324 217.557 87.2324ZM218.596 84.6621C220.51 84.6621 222.068 83.377 222.068 81.627V80.5195L218.705 80.7246C217.064 80.834 216.121 81.5723 216.121 82.7207C216.121 83.9102 217.119 84.6621 218.596 84.6621ZM233.922 87.2734C232.664 87.2734 231.98 86.7676 231.529 85.5371L227.455 74.7363C227.346 74.4355 227.264 74.0938 227.264 73.7656C227.264 72.8359 227.988 72.2207 228.973 72.2207C229.779 72.2207 230.326 72.6582 230.586 73.5742L233.895 83.8418H233.963L237.271 73.5469C237.531 72.6445 238.078 72.2207 238.871 72.2207C239.828 72.2207 240.525 72.877 240.525 73.752C240.525 74.0664 240.457 74.3945 240.348 74.6816L236.273 85.5371C235.85 86.7266 235.125 87.2734 233.922 87.2734ZM246.377 87.2324C243.574 87.2324 241.537 85.4688 241.537 82.8574C241.537 80.2871 243.52 78.7422 247.047 78.5234L250.889 78.3047V77.2656C250.889 75.748 249.863 74.873 248.182 74.873C246.855 74.873 245.994 75.3242 245.146 76.5684C244.791 77.0332 244.34 77.252 243.766 77.252C242.932 77.252 242.33 76.7051 242.33 75.8848C242.33 75.5703 242.412 75.2695 242.562 74.9551C243.301 73.2734 245.543 72.207 248.318 72.207C251.914 72.207 254.252 74.1074 254.252 77.0195V85.5645C254.252 86.6582 253.555 87.2734 252.598 87.2734C251.668 87.2734 251.025 86.7129 250.971 85.7012V84.6895H250.902C250.068 86.2617 248.25 87.2324 246.377 87.2324ZM247.416 84.6621C249.33 84.6621 250.889 83.377 250.889 81.627V80.5195L247.525 80.7246C245.885 80.834 244.941 81.5723 244.941 82.7207C244.941 83.9102 245.939 84.6621 247.416 84.6621ZM257.943 83.418V75.1328H257.027C256.18 75.1328 255.66 74.627 255.66 73.8066C255.66 73 256.18 72.5078 257.027 72.5078H257.943V70.5801C257.943 69.4863 258.6 68.8027 259.652 68.8027C260.691 68.8027 261.348 69.4863 261.348 70.5801V72.5078H262.92C263.768 72.5078 264.287 73 264.287 73.8066C264.287 74.627 263.768 75.1328 262.92 75.1328H261.348V82.6797C261.348 83.7734 261.73 84.252 262.715 84.334L262.961 84.3613C263.863 84.4434 264.328 84.8262 264.328 85.6191C264.328 86.6172 263.453 87.1504 261.895 87.1504H261.758C259.229 87.1504 257.943 85.8926 257.943 83.418ZM270.467 87.2324C267.664 87.2324 265.627 85.4688 265.627 82.8574C265.627 80.2871 267.609 78.7422 271.137 78.5234L274.979 78.3047V77.2656C274.979 75.748 273.953 74.873 272.271 74.873C270.945 74.873 270.084 75.3242 269.236 76.5684C268.881 77.0332 268.43 77.252 267.855 77.252C267.021 77.252 266.42 76.7051 266.42 75.8848C266.42 75.5703 266.502 75.2695 266.652 74.9551C267.391 73.2734 269.633 72.207 272.408 72.207C276.004 72.207 278.342 74.1074 278.342 77.0195V85.5645C278.342 86.6582 277.645 87.2734 276.688 87.2734C275.758 87.2734 275.115 86.7129 275.061 85.7012V84.6895H274.992C274.158 86.2617 272.34 87.2324 270.467 87.2324ZM271.506 84.6621C273.42 84.6621 274.979 83.377 274.979 81.627V80.5195L271.615 80.7246C269.975 80.834 269.031 81.5723 269.031 82.7207C269.031 83.9102 270.029 84.6621 271.506 84.6621ZM282.785 87.2734C281.76 87.2734 281.09 86.6035 281.09 85.4824V73.9434C281.09 72.877 281.746 72.2207 282.717 72.2207C283.66 72.2207 284.33 72.877 284.33 73.9434V75.0508H284.398C284.795 73.3555 286.053 72.2617 287.502 72.2617C288.035 72.2617 288.445 72.3984 288.705 72.6309C289.02 72.8906 289.184 73.3008 289.184 73.8613C289.184 74.3945 289.02 74.791 288.678 75.0645C288.35 75.3516 287.844 75.502 287.174 75.5156C285.232 75.5293 284.494 76.7461 284.494 78.5098V85.4824C284.494 86.6035 283.811 87.2734 282.785 87.2734ZM42.7754 125.154C41.7773 125.154 41.0801 124.512 41.0801 123.363V106.971C41.0801 105.85 41.7637 105.221 42.7344 105.221C43.7051 105.221 44.4023 105.85 44.4023 106.971V108.01H44.4707C45.291 106.328 46.9316 105.262 49.0371 105.262C52.7148 105.262 55.0527 108.119 55.0527 112.754C55.0527 117.375 52.7285 120.232 49.0918 120.232C46.9863 120.232 45.3457 119.221 44.5527 117.594H44.4844V123.363C44.4844 124.512 43.7734 125.154 42.7754 125.154ZM47.998 117.443C50.1992 117.443 51.5664 115.625 51.5664 112.754C51.5664 109.896 50.1992 108.064 47.998 108.064C45.8789 108.064 44.4707 109.938 44.457 112.754C44.4707 115.598 45.8789 117.443 47.998 117.443ZM63.6523 120.287C59.4004 120.287 56.6387 117.457 56.6387 112.754C56.6387 108.078 59.4277 105.207 63.6523 105.207C67.877 105.207 70.666 108.064 70.666 112.754C70.666 117.457 67.9043 120.287 63.6523 120.287ZM63.6523 117.594C65.8125 117.594 67.207 115.844 67.207 112.754C67.207 109.678 65.8125 107.914 63.6523 107.914C61.5059 107.914 60.0977 109.678 60.0977 112.754C60.0977 115.844 61.4922 117.594 63.6523 117.594ZM77.3516 120.273C76.2031 120.273 75.5742 119.74 75.2188 118.523L72.0742 107.695C71.9648 107.271 71.9102 106.984 71.9102 106.684C71.9102 105.822 72.5801 105.221 73.5508 105.221C74.3984 105.221 74.9316 105.713 75.1367 106.656L77.543 116.637H77.6113L80.1406 106.779C80.373 105.768 81.043 105.221 82.082 105.221C83.1074 105.221 83.7637 105.754 83.9961 106.779L86.5391 116.637H86.6211L89.0273 106.643C89.2324 105.699 89.752 105.221 90.5859 105.221C91.5566 105.221 92.2129 105.809 92.2129 106.67C92.2129 106.971 92.1582 107.258 92.0352 107.668L88.9043 118.523C88.5625 119.713 87.8926 120.273 86.7441 120.273C85.5273 120.273 84.8711 119.754 84.5566 118.51L82.0684 109.404H82L79.5117 118.523C79.2246 119.713 78.5273 120.273 77.3516 120.273ZM100.43 120.287C96 120.287 93.3887 117.512 93.3887 112.809C93.3887 108.188 96.0547 105.207 100.238 105.207C104.203 105.207 106.91 108.023 106.91 111.961C106.91 112.973 106.336 113.574 105.324 113.574H96.7793V113.684C96.7793 116.104 98.1875 117.662 100.402 117.662C101.934 117.662 102.932 117.129 104.025 115.734C104.381 115.338 104.695 115.188 105.174 115.188C105.939 115.188 106.541 115.68 106.541 116.5C106.541 116.76 106.459 117.061 106.309 117.361C105.352 119.207 103.191 120.287 100.43 120.287ZM96.8066 111.332H103.574C103.506 109.227 102.166 107.846 100.252 107.846C98.3379 107.846 96.9434 109.254 96.8066 111.332ZM110.807 120.273C109.781 120.273 109.111 119.604 109.111 118.482V106.943C109.111 105.877 109.768 105.221 110.738 105.221C111.682 105.221 112.352 105.877 112.352 106.943V108.051H112.42C112.816 106.355 114.074 105.262 115.523 105.262C116.057 105.262 116.467 105.398 116.727 105.631C117.041 105.891 117.205 106.301 117.205 106.861C117.205 107.395 117.041 107.791 116.699 108.064C116.371 108.352 115.865 108.502 115.195 108.516C113.254 108.529 112.516 109.746 112.516 111.51V118.482C112.516 119.604 111.832 120.273 110.807 120.273ZM124.629 120.287C120.199 120.287 117.588 117.512 117.588 112.809C117.588 108.188 120.254 105.207 124.438 105.207C128.402 105.207 131.109 108.023 131.109 111.961C131.109 112.973 130.535 113.574 129.523 113.574H120.979V113.684C120.979 116.104 122.387 117.662 124.602 117.662C126.133 117.662 127.131 117.129 128.225 115.734C128.58 115.338 128.895 115.188 129.373 115.188C130.139 115.188 130.74 115.68 130.74 116.5C130.74 116.76 130.658 117.061 130.508 117.361C129.551 119.207 127.391 120.287 124.629 120.287ZM121.006 111.332H127.773C127.705 109.227 126.365 107.846 124.451 107.846C122.537 107.846 121.143 109.254 121.006 111.332ZM138.725 120.232C135.074 120.232 132.709 117.348 132.709 112.74C132.709 108.16 135.074 105.262 138.725 105.262C140.803 105.262 142.443 106.342 143.209 107.941H143.291V101.789C143.291 100.641 143.988 99.998 144.986 99.998C145.984 99.998 146.695 100.641 146.695 101.789V118.564C146.695 119.658 145.998 120.273 145.014 120.273C144.029 120.273 143.291 119.672 143.291 118.564V117.43H143.223C142.525 119.098 140.967 120.232 138.725 120.232ZM139.75 117.443C141.896 117.443 143.305 115.625 143.305 112.754C143.305 109.91 141.896 108.064 139.75 108.064C137.562 108.064 136.195 109.883 136.195 112.754C136.195 115.639 137.549 117.443 139.75 117.443ZM156.908 120.273C155.924 120.273 155.254 119.672 155.254 118.564V101.789C155.254 100.641 155.965 99.998 156.963 99.998C157.961 99.998 158.658 100.641 158.658 101.789V107.996H158.74C159.574 106.301 161.215 105.262 163.279 105.262C166.93 105.262 169.254 108.119 169.254 112.754C169.254 117.389 166.943 120.232 163.266 120.232C161.146 120.232 159.52 119.207 158.658 117.525H158.59V118.564C158.59 119.658 157.893 120.273 156.908 120.273ZM162.227 117.443C164.4 117.443 165.768 115.639 165.768 112.754C165.768 109.883 164.4 108.064 162.227 108.064C160.121 108.064 158.645 109.938 158.645 112.754C158.645 115.598 160.121 117.443 162.227 117.443ZM173.15 125.387C171.619 125.387 170.785 124.812 170.785 123.773C170.785 123.076 171.277 122.625 172.07 122.625C172.357 122.625 172.494 122.639 172.809 122.639C173.574 122.639 174.367 122.242 174.873 120.971L175.119 120.26L170.375 107.777C170.252 107.436 170.184 107.08 170.184 106.807C170.184 105.877 170.936 105.221 171.934 105.221C172.795 105.221 173.273 105.604 173.561 106.561L177.02 117.102H177.074L180.533 106.547C180.82 105.617 181.312 105.221 182.174 105.221C183.145 105.221 183.828 105.863 183.828 106.766C183.828 107.039 183.76 107.422 183.637 107.75L178.865 120.52C177.553 124.129 176.049 125.387 173.15 125.387ZM193.412 120.232C192.318 120.232 191.648 119.562 191.648 118.4V102.104C191.648 100.955 192.318 100.271 193.412 100.271H202.846C203.816 100.271 204.459 100.846 204.459 101.762C204.459 102.678 203.803 103.252 202.846 103.252H195.176V109.076H202.135C203.064 109.076 203.68 109.623 203.68 110.512C203.68 111.4 203.064 111.947 202.135 111.947H195.176V118.4C195.176 119.562 194.52 120.232 193.412 120.232ZM208.26 120.273C207.262 120.273 206.551 119.631 206.551 118.482V101.789C206.551 100.641 207.262 99.998 208.26 99.998C209.258 99.998 209.955 100.641 209.955 101.789V118.482C209.955 119.631 209.258 120.273 208.26 120.273ZM217.105 120.232C214.303 120.232 212.266 118.469 212.266 115.857C212.266 113.287 214.248 111.742 217.775 111.523L221.617 111.305V110.266C221.617 108.748 220.592 107.873 218.91 107.873C217.584 107.873 216.723 108.324 215.875 109.568C215.52 110.033 215.068 110.252 214.494 110.252C213.66 110.252 213.059 109.705 213.059 108.885C213.059 108.57 213.141 108.27 213.291 107.955C214.029 106.273 216.271 105.207 219.047 105.207C222.643 105.207 224.98 107.107 224.98 110.02V118.564C224.98 119.658 224.283 120.273 223.326 120.273C222.396 120.273 221.754 119.713 221.699 118.701V117.689H221.631C220.797 119.262 218.979 120.232 217.105 120.232ZM218.145 117.662C220.059 117.662 221.617 116.377 221.617 114.627V113.52L218.254 113.725C216.613 113.834 215.67 114.572 215.67 115.721C215.67 116.91 216.668 117.662 218.145 117.662ZM229.506 103.471C228.453 103.471 227.619 102.65 227.619 101.625C227.619 100.586 228.453 99.7793 229.506 99.7793C230.572 99.7793 231.406 100.586 231.406 101.625C231.406 102.65 230.572 103.471 229.506 103.471ZM229.506 120.273C228.467 120.273 227.811 119.59 227.811 118.482V107.012C227.811 105.918 228.467 105.221 229.506 105.221C230.545 105.221 231.215 105.918 231.215 107.025V118.482C231.215 119.59 230.545 120.273 229.506 120.273ZM235.768 120.273C234.742 120.273 234.072 119.604 234.072 118.482V106.943C234.072 105.877 234.729 105.221 235.699 105.221C236.643 105.221 237.312 105.877 237.312 106.943V108.051H237.381C237.777 106.355 239.035 105.262 240.484 105.262C241.018 105.262 241.428 105.398 241.688 105.631C242.002 105.891 242.166 106.301 242.166 106.861C242.166 107.395 242.002 107.791 241.66 108.064C241.332 108.352 240.826 108.502 240.156 108.516C238.215 108.529 237.477 109.746 237.477 111.51V118.482C237.477 119.604 236.793 120.273 235.768 120.273ZM245.475 103.471C244.422 103.471 243.588 102.65 243.588 101.625C243.588 100.586 244.422 99.7793 245.475 99.7793C246.541 99.7793 247.375 100.586 247.375 101.625C247.375 102.65 246.541 103.471 245.475 103.471ZM245.475 120.273C244.436 120.273 243.779 119.59 243.779 118.482V107.012C243.779 105.918 244.436 105.221 245.475 105.221C246.514 105.221 247.184 105.918 247.184 107.025V118.482C247.184 119.59 246.514 120.273 245.475 120.273ZM250.984 116.418V108.133H250.068C249.221 108.133 248.701 107.627 248.701 106.807C248.701 106 249.221 105.508 250.068 105.508H250.984V103.58C250.984 102.486 251.641 101.803 252.693 101.803C253.732 101.803 254.389 102.486 254.389 103.58V105.508H255.961C256.809 105.508 257.328 106 257.328 106.807C257.328 107.627 256.809 108.133 255.961 108.133H254.389V115.68C254.389 116.773 254.771 117.252 255.756 117.334L256.002 117.361C256.904 117.443 257.369 117.826 257.369 118.619C257.369 119.617 256.494 120.15 254.936 120.15H254.799C252.27 120.15 250.984 118.893 250.984 116.418ZM261.525 125.387C259.994 125.387 259.16 124.812 259.16 123.773C259.16 123.076 259.652 122.625 260.445 122.625C260.732 122.625 260.869 122.639 261.184 122.639C261.949 122.639 262.742 122.242 263.248 120.971L263.494 120.26L258.75 107.777C258.627 107.436 258.559 107.08 258.559 106.807C258.559 105.877 259.311 105.221 260.309 105.221C261.17 105.221 261.648 105.604 261.936 106.561L265.395 117.102H265.449L268.908 106.547C269.195 105.617 269.688 105.221 270.549 105.221C271.52 105.221 272.203 105.863 272.203 106.766C272.203 107.039 272.135 107.422 272.012 107.75L267.24 120.52C265.928 124.129 264.424 125.387 261.525 125.387ZM274.541 120.15C273.434 120.15 272.572 119.289 272.572 118.182C272.572 117.088 273.434 116.213 274.541 116.213C275.635 116.213 276.496 117.088 276.496 118.182C276.496 119.289 275.635 120.15 274.541 120.15Z" fill="#363D40"/>
</svg>
