<svg width="22" height="21" viewBox="0 0 22 21" fill="none" xmlns="http://www.w3.org/2000/svg">
<path d="M11.8684 0C6.97923 0 2.88648 3.48776 1.9449 8.10526H0L2.89474 11.5789L5.78947 8.10526H4.31497C5.20438 4.76565 8.24087 2.31579 11.8684 2.31579C16.1987 2.31579 19.6842 5.80135 19.6842 10.1316C19.6842 14.4618 16.1987 17.9474 11.8684 17.9474C9.0548 17.9474 6.60456 16.4752 5.22862 14.2566L3.23849 15.4326C5.02514 18.3269 8.22826 20.2632 11.8684 20.2632C17.4502 20.2632 22 15.7134 22 10.1316C22 4.5498 17.4502 0 11.8684 0ZM10.7105 5.5V10.1316V10.6834L11.1447 11.0362L14.0395 13.352L14.9441 14.0757L16.3914 12.2664L15.4868 11.5428L13.0263 9.57072V5.5" fill="#8F1734"/>
</svg>
